# MagicaVoxel @ Ephtracy

# group
o 

# material
mtllib guitar.vox.mtl
usemtl palette

# normals
vn -1 0 0
vn 1 0 0
vn 0 0 1
vn 0 0 -1
vn 0 -1 0
vn 0 1 0

# texcoords
vt 0.533203 0.5
vt 0.970703 0.5
vt 0.982422 0.5
vt 0.990234 0.5

# verts
v -1.9 0.5 0.3
v -1.9 0.5 -0.2
v -1.9 0.6 0.4
v -1.9 0.6 0.3
v -1.9 0.6 -0.2
v -1.9 0.6 -0.3
v -1.9 0.7 0.5
v -1.9 0.7 0.4
v -1.9 0.7 -0.3
v -1.9 0.7 -0.4
v -1.9 0.8 0.6
v -1.9 0.8 0.5
v -1.9 0.8 0.0999999
v -1.9 0.8 -0.1
v -1.9 0.8 -0.4
v -1.9 0.8 -0.5
v -1.9 0.9 0.0999999
v -1.9 0.9 -0.1
v -1.9 1 0.0999999
v -1.9 1 -0.1
v -1.9 1.1 0.0999999
v -1.9 1.1 -0.1
v -1.9 1.2 0.6
v -1.9 1.2 0.5
v -1.9 1.2 0.0999999
v -1.9 1.2 -0.1
v -1.9 1.3 0.5
v -1.9 1.3 0.4
v -1.9 1.3 0.0999999
v -1.9 1.3 -0.1
v -1.9 1.3 -0.4
v -1.9 1.3 -0.5
v -1.9 1.4 0.4
v -1.9 1.4 0.3
v -1.9 1.4 -0.3
v -1.9 1.4 -0.4
v -1.9 1.6 0.4
v -1.9 1.6 0.3
v -1.9 1.6 0.0999999
v -1.9 1.6 -0.1
v -1.9 1.6 -0.3
v -1.9 1.6 -0.4
v -1.9 1.7 0.0999999
v -1.9 1.7 -0.1
v -1.9 1.8 0.5
v -1.9 1.8 0.4
v -1.9 1.8 0.2
v -1.9 1.8 0.0999999
v -1.9 1.8 -0.1
v -1.9 1.8 -0.3
v -1.9 1.8 -0.4
v -1.9 1.8 -0.5
v -1.9 1.9 0.3
v -1.9 1.9 0.2
v -1.9 1.9 0.0999999
v -1.9 1.9 -0.1
v -1.9 1.9 -0.3
v -1.9 1.9 -0.4
v -1.9 2 0.4
v -1.9 2 0.3
v -1.9 2 0.0999999
v -1.9 2 -0.1
v -1.9 2 -0.4
v -1.9 2 -0.5
v -1.9 2.1 0.5
v -1.9 2.1 0.4
v -1.9 2.1 0.0999999
v -1.9 2.1 -0.1
v -1.9 2.2 0.0999999
v -1.9 2.2 -0.1
v -1.9 2.3 0.0999999
v -1.9 2.3 -0.1
v -1.9 2.4 0.0999999
v -1.9 2.4 -0.1
v -1.9 2.5 0.0999999
v -1.9 2.5 -0.1
v -1.9 2.6 0.0999999
v -1.9 2.6 -0.1
v -1.9 2.7 0.0999999
v -1.9 2.7 -0.1
v -1.9 2.8 0.0999999
v -1.9 2.8 -0.1
v -1.9 2.9 0.0999999
v -1.9 2.9 -0.1
v -1.9 3 0.0999999
v -1.9 3 -0.1
v -1.9 3.1 0.0999999
v -1.9 3.1 -0.1
v -1.9 3.2 0.0999999
v -1.9 3.2 -0.1
v -1.9 3.3 0.0999999
v -1.9 3.3 -0.1
v -1.9 3.4 0.2
v -1.9 3.4 0.0999999
v -1.9 3.5 -0.1
v -1.9 3.5 -0.2
v -1.9 3.6 -0.1
v -1.9 3.6 -0.2
v -1.9 3.7 -5.96046e-08
v -1.9 3.7 -0.1
v -1.9 3.8 0.0999999
v -1.9 3.8 -5.96046e-08
v -1.9 4 0.2
v -1.9 4 0.0999999
v -1.8 0.5 0.3
v -1.8 0.5 -0.2
v -1.8 0.6 0.4
v -1.8 0.6 0.3
v -1.8 0.6 -0.2
v -1.8 0.6 -0.3
v -1.8 0.7 0.5
v -1.8 0.7 0.4
v -1.8 0.7 -0.3
v -1.8 0.7 -0.4
v -1.8 0.8 0.6
v -1.8 0.8 0.5
v -1.8 0.8 0.0999999
v -1.8 0.8 -0.1
v -1.8 0.8 -0.4
v -1.8 0.8 -0.5
v -1.8 0.9 0.0999999
v -1.8 0.9 -0.1
v -1.8 1 0.0999999
v -1.8 1 -0.1
v -1.8 1.1 0.0999999
v -1.8 1.1 -0.1
v -1.8 1.2 0.6
v -1.8 1.2 0.5
v -1.8 1.2 0.0999999
v -1.8 1.2 -0.1
v -1.8 1.3 0.5
v -1.8 1.3 0.4
v -1.8 1.3 0.0999999
v -1.8 1.3 -0.1
v -1.8 1.3 -0.4
v -1.8 1.3 -0.5
v -1.8 1.4 0.4
v -1.8 1.4 0.3
v -1.8 1.4 -0.3
v -1.8 1.4 -0.4
v -1.8 1.6 0.4
v -1.8 1.6 0.3
v -1.8 1.6 0.0999999
v -1.8 1.6 -0.1
v -1.8 1.6 -0.3
v -1.8 1.6 -0.4
v -1.8 1.7 0.0999999
v -1.8 1.7 -0.1
v -1.8 1.8 0.5
v -1.8 1.8 0.4
v -1.8 1.8 0.2
v -1.8 1.8 0.0999999
v -1.8 1.8 -0.1
v -1.8 1.8 -0.3
v -1.8 1.8 -0.4
v -1.8 1.8 -0.5
v -1.8 1.9 0.3
v -1.8 1.9 0.2
v -1.8 1.9 0.0999999
v -1.8 1.9 -0.1
v -1.8 1.9 -0.3
v -1.8 1.9 -0.4
v -1.8 2 0.4
v -1.8 2 0.3
v -1.8 2 0.0999999
v -1.8 2 -0.1
v -1.8 2 -0.4
v -1.8 2 -0.5
v -1.8 2.1 0.5
v -1.8 2.1 0.4
v -1.8 2.1 0.0999999
v -1.8 2.1 -0.1
v -1.8 2.2 0.0999999
v -1.8 2.2 -0.1
v -1.8 2.3 0.0999999
v -1.8 2.3 -0.1
v -1.8 2.4 0.0999999
v -1.8 2.4 -0.1
v -1.8 2.5 0.0999999
v -1.8 2.5 -0.1
v -1.8 2.6 0.0999999
v -1.8 2.6 -0.1
v -1.8 2.7 0.0999999
v -1.8 2.7 -0.1
v -1.8 2.8 0.0999999
v -1.8 2.8 -0.1
v -1.8 2.9 0.0999999
v -1.8 2.9 -0.1
v -1.8 3 0.0999999
v -1.8 3 -0.1
v -1.8 3.1 0.0999999
v -1.8 3.1 -0.1
v -1.8 3.2 0.0999999
v -1.8 3.2 -0.1
v -1.8 3.3 0.0999999
v -1.8 3.3 -0.1
v -1.8 3.4 0.2
v -1.8 3.4 0.0999999
v -1.8 3.5 -0.1
v -1.8 3.5 -0.2
v -1.8 3.6 -0.1
v -1.8 3.6 -0.2
v -1.8 3.7 -5.96046e-08
v -1.8 3.7 -0.1
v -1.8 3.8 0.0999999
v -1.8 3.8 -5.96046e-08
v -1.8 4 0.2
v -1.8 4 0.0999999
v -1.9 0.8 0.6
v -1.9 1.2 0.6
v -1.8 0.8 0.6
v -1.8 1.2 0.6
v -1.9 0.7 0.5
v -1.9 0.8 0.5
v -1.9 1.2 0.5
v -1.9 1.3 0.5
v -1.9 1.8 0.5
v -1.9 2.1 0.5
v -1.8 0.7 0.5
v -1.8 0.8 0.5
v -1.8 1.2 0.5
v -1.8 1.3 0.5
v -1.8 1.8 0.5
v -1.8 2.1 0.5
v -1.9 0.6 0.4
v -1.9 0.7 0.4
v -1.9 1.3 0.4
v -1.9 1.4 0.4
v -1.9 1.6 0.4
v -1.9 1.8 0.4
v -1.8 0.6 0.4
v -1.8 0.7 0.4
v -1.8 1.3 0.4
v -1.8 1.4 0.4
v -1.8 1.6 0.4
v -1.8 1.8 0.4
v -1.9 0.5 0.3
v -1.9 0.6 0.3
v -1.9 1.4 0.3
v -1.9 1.6 0.3
v -1.8 0.5 0.3
v -1.8 0.6 0.3
v -1.8 1.4 0.3
v -1.8 1.6 0.3
v -1.9 3.4 0.2
v -1.9 4 0.2
v -1.8 3.4 0.2
v -1.8 4 0.2
v -1.9 1.8 0.0999999
v -1.9 1.9 0.0999999
v -1.9 2 0.0999999
v -1.9 2.1 0.0999999
v -1.9 2.2 0.0999999
v -1.9 2.3 0.0999999
v -1.9 2.4 0.0999999
v -1.9 2.5 0.0999999
v -1.9 2.6 0.0999999
v -1.9 2.7 0.0999999
v -1.9 2.8 0.0999999
v -1.9 2.9 0.0999999
v -1.9 3 0.0999999
v -1.9 3.1 0.0999999
v -1.9 3.2 0.0999999
v -1.9 3.3 0.0999999
v -1.9 3.4 0.0999999
v -1.8 1.8 0.0999999
v -1.8 1.9 0.0999999
v -1.8 2 0.0999999
v -1.8 2.1 0.0999999
v -1.8 2.2 0.0999999
v -1.8 2.3 0.0999999
v -1.8 2.4 0.0999999
v -1.8 2.5 0.0999999
v -1.8 2.6 0.0999999
v -1.8 2.7 0.0999999
v -1.8 2.8 0.0999999
v -1.8 2.9 0.0999999
v -1.8 3 0.0999999
v -1.8 3.1 0.0999999
v -1.8 3.2 0.0999999
v -1.8 3.3 0.0999999
v -1.8 3.4 0.0999999
v -1.9 1.8 -0.3
v -1.9 1.9 -0.3
v -1.8 1.8 -0.3
v -1.8 1.9 -0.3
v -1.9 1.9 -0.4
v -1.9 2 -0.4
v -1.8 1.9 -0.4
v -1.8 2 -0.4
v -1.9 2 0.4
v -1.9 2.1 0.4
v -1.8 2 0.4
v -1.8 2.1 0.4
v -1.9 1.9 0.3
v -1.9 2 0.3
v -1.8 1.9 0.3
v -1.8 2 0.3
v -1.9 1.8 0.2
v -1.9 1.9 0.2
v -1.8 1.8 0.2
v -1.8 1.9 0.2
v -1.9 3.8 0.0999999
v -1.9 4 0.0999999
v -1.8 3.8 0.0999999
v -1.8 4 0.0999999
v -1.9 3.7 -5.96046e-08
v -1.9 3.8 -5.96046e-08
v -1.8 3.7 -5.96046e-08
v -1.8 3.8 -5.96046e-08
v -1.9 1.8 -0.1
v -1.9 1.9 -0.1
v -1.9 2 -0.1
v -1.9 2.1 -0.1
v -1.9 2.2 -0.1
v -1.9 2.3 -0.1
v -1.9 2.4 -0.1
v -1.9 2.5 -0.1
v -1.9 2.6 -0.1
v -1.9 2.7 -0.1
v -1.9 2.8 -0.1
v -1.9 2.9 -0.1
v -1.9 3 -0.1
v -1.9 3.1 -0.1
v -1.9 3.2 -0.1
v -1.9 3.3 -0.1
v -1.9 3.5 -0.1
v -1.9 3.6 -0.1
v -1.9 3.7 -0.1
v -1.8 1.8 -0.1
v -1.8 1.9 -0.1
v -1.8 2 -0.1
v -1.8 2.1 -0.1
v -1.8 2.2 -0.1
v -1.8 2.3 -0.1
v -1.8 2.4 -0.1
v -1.8 2.5 -0.1
v -1.8 2.6 -0.1
v -1.8 2.7 -0.1
v -1.8 2.8 -0.1
v -1.8 2.9 -0.1
v -1.8 3 -0.1
v -1.8 3.1 -0.1
v -1.8 3.2 -0.1
v -1.8 3.3 -0.1
v -1.8 3.5 -0.1
v -1.8 3.6 -0.1
v -1.8 3.7 -0.1
v -1.9 0.5 -0.2
v -1.9 0.6 -0.2
v -1.9 3.5 -0.2
v -1.9 3.6 -0.2
v -1.8 0.5 -0.2
v -1.8 0.6 -0.2
v -1.8 3.5 -0.2
v -1.8 3.6 -0.2
v -1.9 0.6 -0.3
v -1.9 0.7 -0.3
v -1.9 1.4 -0.3
v -1.9 1.6 -0.3
v -1.8 0.6 -0.3
v -1.8 0.7 -0.3
v -1.8 1.4 -0.3
v -1.8 1.6 -0.3
v -1.9 0.7 -0.4
v -1.9 0.8 -0.4
v -1.9 1.3 -0.4
v -1.9 1.4 -0.4
v -1.9 1.6 -0.4
v -1.9 1.8 -0.4
v -1.8 0.7 -0.4
v -1.8 0.8 -0.4
v -1.8 1.3 -0.4
v -1.8 1.4 -0.4
v -1.8 1.6 -0.4
v -1.8 1.8 -0.4
v -1.9 0.8 -0.5
v -1.9 1.3 -0.5
v -1.9 1.8 -0.5
v -1.9 2 -0.5
v -1.8 0.8 -0.5
v -1.8 1.3 -0.5
v -1.8 1.8 -0.5
v -1.8 2 -0.5
v -1.9 0.5 0.3
v -1.8 0.5 0.3
v -1.9 0.5 -0.2
v -1.8 0.5 -0.2
v -1.9 0.6 0.4
v -1.8 0.6 0.4
v -1.9 0.6 0.3
v -1.8 0.6 0.3
v -1.9 0.6 -0.2
v -1.8 0.6 -0.2
v -1.9 0.6 -0.3
v -1.8 0.6 -0.3
v -1.9 0.7 0.5
v -1.8 0.7 0.5
v -1.9 0.7 0.4
v -1.8 0.7 0.4
v -1.9 0.7 -0.3
v -1.8 0.7 -0.3
v -1.9 0.7 -0.4
v -1.8 0.7 -0.4
v -1.9 0.8 0.6
v -1.8 0.8 0.6
v -1.9 0.8 0.5
v -1.8 0.8 0.5
v -1.9 0.8 -0.4
v -1.8 0.8 -0.4
v -1.9 0.8 -0.5
v -1.8 0.8 -0.5
v -1.9 1.6 0.4
v -1.8 1.6 0.4
v -1.9 1.6 0.3
v -1.8 1.6 0.3
v -1.9 1.6 -0.3
v -1.8 1.6 -0.3
v -1.9 1.6 -0.4
v -1.8 1.6 -0.4
v -1.9 1.8 0.5
v -1.8 1.8 0.5
v -1.9 1.8 0.4
v -1.8 1.8 0.4
v -1.9 1.8 -0.4
v -1.8 1.8 -0.4
v -1.9 1.8 -0.5
v -1.8 1.8 -0.5
v -1.9 3.4 0.2
v -1.8 3.4 0.2
v -1.9 3.4 0.0999999
v -1.8 3.4 0.0999999
v -1.9 3.5 -0.1
v -1.8 3.5 -0.1
v -1.9 3.5 -0.2
v -1.8 3.5 -0.2
v -1.9 1.2 0.6
v -1.8 1.2 0.6
v -1.9 1.2 0.5
v -1.8 1.2 0.5
v -1.9 1.3 0.5
v -1.8 1.3 0.5
v -1.9 1.3 0.4
v -1.8 1.3 0.4
v -1.9 1.3 -0.4
v -1.8 1.3 -0.4
v -1.9 1.3 -0.5
v -1.8 1.3 -0.5
v -1.9 1.4 0.4
v -1.8 1.4 0.4
v -1.9 1.4 0.3
v -1.8 1.4 0.3
v -1.9 1.4 -0.3
v -1.8 1.4 -0.3
v -1.9 1.4 -0.4
v -1.8 1.4 -0.4
v -1.9 1.8 0.2
v -1.8 1.8 0.2
v -1.9 1.8 0.0999999
v -1.8 1.8 0.0999999
v -1.9 1.8 -0.1
v -1.8 1.8 -0.1
v -1.9 1.8 -0.3
v -1.8 1.8 -0.3
v -1.9 1.9 0.3
v -1.8 1.9 0.3
v -1.9 1.9 0.2
v -1.8 1.9 0.2
v -1.9 1.9 -0.3
v -1.8 1.9 -0.3
v -1.9 1.9 -0.4
v -1.8 1.9 -0.4
v -1.9 2 0.4
v -1.8 2 0.4
v -1.9 2 0.3
v -1.8 2 0.3
v -1.9 2 -0.4
v -1.8 2 -0.4
v -1.9 2 -0.5
v -1.8 2 -0.5
v -1.9 2.1 0.5
v -1.8 2.1 0.5
v -1.9 2.1 0.4
v -1.8 2.1 0.4
v -1.9 3.6 -0.1
v -1.8 3.6 -0.1
v -1.9 3.6 -0.2
v -1.8 3.6 -0.2
v -1.9 3.7 -5.96046e-08
v -1.8 3.7 -5.96046e-08
v -1.9 3.7 -0.1
v -1.8 3.7 -0.1
v -1.9 3.8 0.0999999
v -1.8 3.8 0.0999999
v -1.9 3.8 -5.96046e-08
v -1.8 3.8 -5.96046e-08
v -1.9 4 0.2
v -1.8 4 0.2
v -1.9 4 0.0999999
v -1.8 4 0.0999999

# faces
f 4/4/1 2/4/1 1/4/1
f 5/4/1 2/4/1 4/4/1
f 8/4/1 4/4/1 3/4/1
f 8/4/1 6/4/1 5/4/1
f 8/4/1 5/4/1 4/4/1
f 9/4/1 6/4/1 8/4/1
f 12/4/1 8/4/1 7/4/1
f 12/4/1 10/4/1 9/4/1
f 12/4/1 9/4/1 8/4/1
f 13/4/1 10/4/1 12/4/1
f 14/4/1 10/4/1 13/4/1
f 15/4/1 10/4/1 14/4/1
f 17/4/1 12/4/1 11/4/1
f 17/4/1 13/4/1 12/4/1
f 17/2/1 14/2/1 13/2/1
f 18/4/1 16/4/1 15/4/1
f 18/2/1 14/2/1 17/2/1
f 18/4/1 15/4/1 14/4/1
f 19/4/1 17/4/1 11/4/1
f 19/4/1 18/4/1 17/4/1
f 20/4/1 16/4/1 18/4/1
f 20/4/1 18/4/1 19/4/1
f 21/4/1 19/4/1 11/4/1
f 21/2/1 20/2/1 19/2/1
f 22/4/1 16/4/1 20/4/1
f 22/2/1 20/2/1 21/2/1
f 23/4/1 21/4/1 11/4/1
f 23/4/1 22/4/1 21/4/1
f 24/4/1 22/4/1 23/4/1
f 25/4/1 22/4/1 24/4/1
f 26/4/1 16/4/1 22/4/1
f 26/4/1 22/4/1 25/4/1
f 27/4/1 25/4/1 24/4/1
f 28/4/1 25/4/1 27/4/1
f 29/2/1 26/2/1 25/2/1
f 29/4/1 25/4/1 28/4/1
f 30/4/1 16/4/1 26/4/1
f 30/2/1 26/2/1 29/2/1
f 31/4/1 16/4/1 30/4/1
f 32/4/1 16/4/1 31/4/1
f 33/4/1 29/4/1 28/4/1
f 33/4/1 31/4/1 30/4/1
f 33/4/1 30/4/1 29/4/1
f 34/4/1 31/4/1 33/4/1
f 35/4/1 31/4/1 34/4/1
f 36/4/1 31/4/1 35/4/1
f 38/4/1 35/4/1 34/4/1
f 39/4/1 35/4/1 38/4/1
f 40/4/1 35/4/1 39/4/1
f 41/4/1 35/4/1 40/4/1
f 43/4/1 38/4/1 37/4/1
f 43/4/1 39/4/1 38/4/1
f 43/1/1 40/1/1 39/1/1
f 44/4/1 42/4/1 41/4/1
f 44/1/1 40/1/1 43/1/1
f 44/4/1 41/4/1 40/4/1
f 46/4/1 43/4/1 37/4/1
f 47/4/1 43/4/1 46/4/1
f 48/3/1 44/3/1 43/3/1
f 48/4/1 43/4/1 47/4/1
f 49/4/1 42/4/1 44/4/1
f 49/3/1 44/3/1 48/3/1
f 50/4/1 42/4/1 49/4/1
f 51/4/1 42/4/1 50/4/1
f 53/4/1 47/4/1 46/4/1
f 53/4/1 46/4/1 45/4/1
f 54/4/1 47/4/1 53/4/1
f 55/1/1 49/1/1 48/1/1
f 56/1/1 49/1/1 55/1/1
f 57/4/1 51/4/1 50/4/1
f 57/4/1 52/4/1 51/4/1
f 58/4/1 52/4/1 57/4/1
f 59/4/1 53/4/1 45/4/1
f 60/4/1 53/4/1 59/4/1
f 61/3/1 56/3/1 55/3/1
f 62/3/1 56/3/1 61/3/1
f 63/4/1 52/4/1 58/4/1
f 64/4/1 52/4/1 63/4/1
f 65/4/1 59/4/1 45/4/1
f 66/4/1 59/4/1 65/4/1
f 67/1/1 62/1/1 61/1/1
f 68/1/1 62/1/1 67/1/1
f 69/3/1 68/3/1 67/3/1
f 70/3/1 68/3/1 69/3/1
f 71/1/1 70/1/1 69/1/1
f 72/1/1 70/1/1 71/1/1
f 73/3/1 72/3/1 71/3/1
f 74/3/1 72/3/1 73/3/1
f 75/1/1 74/1/1 73/1/1
f 76/1/1 74/1/1 75/1/1
f 77/3/1 76/3/1 75/3/1
f 78/3/1 76/3/1 77/3/1
f 79/1/1 78/1/1 77/1/1
f 80/1/1 78/1/1 79/1/1
f 81/3/1 80/3/1 79/3/1
f 82/3/1 80/3/1 81/3/1
f 83/1/1 82/1/1 81/1/1
f 84/1/1 82/1/1 83/1/1
f 85/3/1 84/3/1 83/3/1
f 86/3/1 84/3/1 85/3/1
f 87/1/1 86/1/1 85/1/1
f 88/1/1 86/1/1 87/1/1
f 89/3/1 88/3/1 87/3/1
f 90/3/1 88/3/1 89/3/1
f 91/1/1 90/1/1 89/1/1
f 92/1/1 90/1/1 91/1/1
f 94/4/1 92/4/1 91/4/1
f 95/4/1 92/4/1 94/4/1
f 95/4/1 94/4/1 93/4/1
f 97/4/1 95/4/1 93/4/1
f 97/4/1 96/4/1 95/4/1
f 98/4/1 96/4/1 97/4/1
f 99/4/1 97/4/1 93/4/1
f 100/4/1 97/4/1 99/4/1
f 101/4/1 99/4/1 93/4/1
f 102/4/1 99/4/1 101/4/1
f 103/4/1 101/4/1 93/4/1
f 104/4/1 101/4/1 103/4/1
f 105/4/2 106/4/2 108/4/2
f 108/4/2 106/4/2 109/4/2
f 107/4/2 108/4/2 112/4/2
f 109/4/2 110/4/2 112/4/2
f 108/4/2 109/4/2 112/4/2
f 112/4/2 110/4/2 113/4/2
f 111/4/2 112/4/2 116/4/2
f 113/4/2 114/4/2 116/4/2
f 112/4/2 113/4/2 116/4/2
f 116/4/2 114/4/2 117/4/2
f 117/4/2 114/4/2 118/4/2
f 118/4/2 114/4/2 119/4/2
f 115/4/2 116/4/2 121/4/2
f 116/4/2 117/4/2 121/4/2
f 117/2/2 118/2/2 121/2/2
f 119/4/2 120/4/2 122/4/2
f 121/2/2 118/2/2 122/2/2
f 118/4/2 119/4/2 122/4/2
f 115/4/2 121/4/2 123/4/2
f 121/4/2 122/4/2 123/4/2
f 122/4/2 120/4/2 124/4/2
f 123/4/2 122/4/2 124/4/2
f 115/4/2 123/4/2 125/4/2
f 123/2/2 124/2/2 125/2/2
f 124/4/2 120/4/2 126/4/2
f 125/2/2 124/2/2 126/2/2
f 115/4/2 125/4/2 127/4/2
f 125/4/2 126/4/2 127/4/2
f 127/4/2 126/4/2 128/4/2
f 128/4/2 126/4/2 129/4/2
f 126/4/2 120/4/2 130/4/2
f 129/4/2 126/4/2 130/4/2
f 128/4/2 129/4/2 131/4/2
f 131/4/2 129/4/2 132/4/2
f 129/2/2 130/2/2 133/2/2
f 132/4/2 129/4/2 133/4/2
f 130/4/2 120/4/2 134/4/2
f 133/2/2 130/2/2 134/2/2
f 134/4/2 120/4/2 135/4/2
f 135/4/2 120/4/2 136/4/2
f 132/4/2 133/4/2 137/4/2
f 134/4/2 135/4/2 137/4/2
f 133/4/2 134/4/2 137/4/2
f 137/4/2 135/4/2 138/4/2
f 138/4/2 135/4/2 139/4/2
f 139/4/2 135/4/2 140/4/2
f 138/4/2 139/4/2 142/4/2
f 142/4/2 139/4/2 143/4/2
f 143/4/2 139/4/2 144/4/2
f 144/4/2 139/4/2 145/4/2
f 141/4/2 142/4/2 147/4/2
f 142/4/2 143/4/2 147/4/2
f 143/1/2 144/1/2 147/1/2
f 145/4/2 146/4/2 148/4/2
f 147/1/2 144/1/2 148/1/2
f 144/4/2 145/4/2 148/4/2
f 141/4/2 147/4/2 150/4/2
f 150/4/2 147/4/2 151/4/2
f 147/3/2 148/3/2 152/3/2
f 151/4/2 147/4/2 152/4/2
f 148/4/2 146/4/2 153/4/2
f 152/3/2 148/3/2 153/3/2
f 153/4/2 146/4/2 154/4/2
f 154/4/2 146/4/2 155/4/2
f 150/4/2 151/4/2 157/4/2
f 149/4/2 150/4/2 157/4/2
f 157/4/2 151/4/2 158/4/2
f 152/1/2 153/1/2 159/1/2
f 159/1/2 153/1/2 160/1/2
f 154/4/2 155/4/2 161/4/2
f 155/4/2 156/4/2 161/4/2
f 161/4/2 156/4/2 162/4/2
f 149/4/2 157/4/2 163/4/2
f 163/4/2 157/4/2 164/4/2
f 159/3/2 160/3/2 165/3/2
f 165/3/2 160/3/2 166/3/2
f 162/4/2 156/4/2 167/4/2
f 167/4/2 156/4/2 168/4/2
f 149/4/2 163/4/2 169/4/2
f 169/4/2 163/4/2 170/4/2
f 165/1/2 166/1/2 171/1/2
f 171/1/2 166/1/2 172/1/2
f 171/3/2 172/3/2 173/3/2
f 173/3/2 172/3/2 174/3/2
f 173/1/2 174/1/2 175/1/2
f 175/1/2 174/1/2 176/1/2
f 175/3/2 176/3/2 177/3/2
f 177/3/2 176/3/2 178/3/2
f 177/1/2 178/1/2 179/1/2
f 179/1/2 178/1/2 180/1/2
f 179/3/2 180/3/2 181/3/2
f 181/3/2 180/3/2 182/3/2
f 181/1/2 182/1/2 183/1/2
f 183/1/2 182/1/2 184/1/2
f 183/3/2 184/3/2 185/3/2
f 185/3/2 184/3/2 186/3/2
f 185/1/2 186/1/2 187/1/2
f 187/1/2 186/1/2 188/1/2
f 187/3/2 188/3/2 189/3/2
f 189/3/2 188/3/2 190/3/2
f 189/1/2 190/1/2 191/1/2
f 191/1/2 190/1/2 192/1/2
f 191/3/2 192/3/2 193/3/2
f 193/3/2 192/3/2 194/3/2
f 193/1/2 194/1/2 195/1/2
f 195/1/2 194/1/2 196/1/2
f 195/4/2 196/4/2 198/4/2
f 198/4/2 196/4/2 199/4/2
f 197/4/2 198/4/2 199/4/2
f 197/4/2 199/4/2 201/4/2
f 199/4/2 200/4/2 201/4/2
f 201/4/2 200/4/2 202/4/2
f 197/4/2 201/4/2 203/4/2
f 203/4/2 201/4/2 204/4/2
f 197/4/2 203/4/2 205/4/2
f 205/4/2 203/4/2 206/4/2
f 197/4/2 205/4/2 207/4/2
f 207/4/2 205/4/2 208/4/2
f 211/4/3 210/4/3 209/4/3
f 212/4/3 210/4/3 211/4/3
f 219/4/3 214/4/3 213/4/3
f 220/4/3 214/4/3 219/4/3
f 221/4/3 216/4/3 215/4/3
f 222/4/3 216/4/3 221/4/3
f 223/4/3 218/4/3 217/4/3
f 224/4/3 218/4/3 223/4/3
f 231/4/3 226/4/3 225/4/3
f 232/4/3 226/4/3 231/4/3
f 233/4/3 228/4/3 227/4/3
f 234/4/3 228/4/3 233/4/3
f 235/4/3 230/4/3 229/4/3
f 236/4/3 230/4/3 235/4/3
f 241/4/3 238/4/3 237/4/3
f 242/4/3 238/4/3 241/4/3
f 243/4/3 240/4/3 239/4/3
f 244/4/3 240/4/3 243/4/3
f 247/4/3 246/4/3 245/4/3
f 248/4/3 246/4/3 247/4/3
f 266/1/3 250/1/3 249/1/3
f 267/3/3 251/3/3 250/3/3
f 267/1/3 250/1/3 266/1/3
f 268/1/3 252/1/3 251/1/3
f 268/3/3 251/3/3 267/3/3
f 269/3/3 253/3/3 252/3/3
f 269/1/3 252/1/3 268/1/3
f 270/1/3 254/1/3 253/1/3
f 270/3/3 253/3/3 269/3/3
f 271/3/3 255/3/3 254/3/3
f 271/1/3 254/1/3 270/1/3
f 272/1/3 256/1/3 255/1/3
f 272/3/3 255/3/3 271/3/3
f 273/3/3 257/3/3 256/3/3
f 273/1/3 256/1/3 272/1/3
f 274/1/3 258/1/3 257/1/3
f 274/3/3 257/3/3 273/3/3
f 275/3/3 259/3/3 258/3/3
f 275/1/3 258/1/3 274/1/3
f 276/1/3 260/1/3 259/1/3
f 276/3/3 259/3/3 275/3/3
f 277/3/3 261/3/3 260/3/3
f 277/1/3 260/1/3 276/1/3
f 278/1/3 262/1/3 261/1/3
f 278/3/3 261/3/3 277/3/3
f 279/3/3 263/3/3 262/3/3
f 279/1/3 262/1/3 278/1/3
f 280/1/3 264/1/3 263/1/3
f 280/3/3 263/3/3 279/3/3
f 281/4/3 265/4/3 264/4/3
f 281/1/3 264/1/3 280/1/3
f 282/4/3 265/4/3 281/4/3
f 285/4/3 284/4/3 283/4/3
f 286/4/3 284/4/3 285/4/3
f 289/4/3 288/4/3 287/4/3
f 290/4/3 288/4/3 289/4/3
f 291/4/4 292/4/4 293/4/4
f 293/4/4 292/4/4 294/4/4
f 295/4/4 296/4/4 297/4/4
f 297/4/4 296/4/4 298/4/4
f 299/4/4 300/4/4 301/4/4
f 301/4/4 300/4/4 302/4/4
f 303/4/4 304/4/4 305/4/4
f 305/4/4 304/4/4 306/4/4
f 307/4/4 308/4/4 309/4/4
f 309/4/4 308/4/4 310/4/4
f 311/1/4 312/1/4 330/1/4
f 312/3/4 313/3/4 331/3/4
f 330/1/4 312/1/4 331/1/4
f 313/1/4 314/1/4 332/1/4
f 331/3/4 313/3/4 332/3/4
f 314/3/4 315/3/4 333/3/4
f 332/1/4 314/1/4 333/1/4
f 315/1/4 316/1/4 334/1/4
f 333/3/4 315/3/4 334/3/4
f 316/3/4 317/3/4 335/3/4
f 334/1/4 316/1/4 335/1/4
f 317/1/4 318/1/4 336/1/4
f 335/3/4 317/3/4 336/3/4
f 318/3/4 319/3/4 337/3/4
f 336/1/4 318/1/4 337/1/4
f 319/1/4 320/1/4 338/1/4
f 337/3/4 319/3/4 338/3/4
f 320/3/4 321/3/4 339/3/4
f 338/1/4 320/1/4 339/1/4
f 321/1/4 322/1/4 340/1/4
f 339/3/4 321/3/4 340/3/4
f 322/3/4 323/3/4 341/3/4
f 340/1/4 322/1/4 341/1/4
f 323/1/4 324/1/4 342/1/4
f 341/3/4 323/3/4 342/3/4
f 324/3/4 325/3/4 343/3/4
f 342/1/4 324/1/4 343/1/4
f 325/1/4 326/1/4 344/1/4
f 343/3/4 325/3/4 344/3/4
f 326/4/4 327/4/4 345/4/4
f 344/1/4 326/1/4 345/1/4
f 345/4/4 327/4/4 346/4/4
f 328/4/4 329/4/4 347/4/4
f 347/4/4 329/4/4 348/4/4
f 349/4/4 350/4/4 353/4/4
f 353/4/4 350/4/4 354/4/4
f 351/4/4 352/4/4 355/4/4
f 355/4/4 352/4/4 356/4/4
f 357/4/4 358/4/4 361/4/4
f 361/4/4 358/4/4 362/4/4
f 359/4/4 360/4/4 363/4/4
f 363/4/4 360/4/4 364/4/4
f 365/4/4 366/4/4 371/4/4
f 371/4/4 366/4/4 372/4/4
f 367/4/4 368/4/4 373/4/4
f 373/4/4 368/4/4 374/4/4
f 369/4/4 370/4/4 375/4/4
f 375/4/4 370/4/4 376/4/4
f 377/4/4 378/4/4 381/4/4
f 381/4/4 378/4/4 382/4/4
f 379/4/4 380/4/4 383/4/4
f 383/4/4 380/4/4 384/4/4
f 387/4/5 386/4/5 385/4/5
f 388/4/5 386/4/5 387/4/5
f 391/4/5 390/4/5 389/4/5
f 392/4/5 390/4/5 391/4/5
f 395/4/5 394/4/5 393/4/5
f 396/4/5 394/4/5 395/4/5
f 399/4/5 398/4/5 397/4/5
f 400/4/5 398/4/5 399/4/5
f 403/4/5 402/4/5 401/4/5
f 404/4/5 402/4/5 403/4/5
f 407/4/5 406/4/5 405/4/5
f 408/4/5 406/4/5 407/4/5
f 411/4/5 410/4/5 409/4/5
f 412/4/5 410/4/5 411/4/5
f 415/4/5 414/4/5 413/4/5
f 416/4/5 414/4/5 415/4/5
f 419/4/5 418/4/5 417/4/5
f 420/4/5 418/4/5 419/4/5
f 423/4/5 422/4/5 421/4/5
f 424/4/5 422/4/5 423/4/5
f 427/4/5 426/4/5 425/4/5
f 428/4/5 426/4/5 427/4/5
f 431/4/5 430/4/5 429/4/5
f 432/4/5 430/4/5 431/4/5
f 435/4/5 434/4/5 433/4/5
f 436/4/5 434/4/5 435/4/5
f 437/4/6 438/4/6 439/4/6
f 439/4/6 438/4/6 440/4/6
f 441/4/6 442/4/6 443/4/6
f 443/4/6 442/4/6 444/4/6
f 445/4/6 446/4/6 447/4/6
f 447/4/6 446/4/6 448/4/6
f 449/4/6 450/4/6 451/4/6
f 451/4/6 450/4/6 452/4/6
f 453/4/6 454/4/6 455/4/6
f 455/4/6 454/4/6 456/4/6
f 457/4/6 458/4/6 459/4/6
f 459/4/6 458/4/6 460/4/6
f 461/4/6 462/4/6 463/4/6
f 463/4/6 462/4/6 464/4/6
f 465/4/6 466/4/6 467/4/6
f 467/4/6 466/4/6 468/4/6
f 469/4/6 470/4/6 471/4/6
f 471/4/6 470/4/6 472/4/6
f 473/4/6 474/4/6 475/4/6
f 475/4/6 474/4/6 476/4/6
f 477/4/6 478/4/6 479/4/6
f 479/4/6 478/4/6 480/4/6
f 481/4/6 482/4/6 483/4/6
f 483/4/6 482/4/6 484/4/6
f 485/4/6 486/4/6 487/4/6
f 487/4/6 486/4/6 488/4/6
f 489/4/6 490/4/6 491/4/6
f 491/4/6 490/4/6 492/4/6
f 493/4/6 494/4/6 495/4/6
f 495/4/6 494/4/6 496/4/6
f 497/4/6 498/4/6 499/4/6
f 499/4/6 498/4/6 500/4/6
